<svg xmlns="http://www.w3.org/2000/svg" version="1.1" viewBox="0 0 400 400">
    <g>
        <path fill="#146cb4"
              d="M177.2.6A200.5 200.5 0 0 0 .2 185.5l-.3 6.5H12c13.7.2 14.8.2 15 0l.6-5.8c.8-10.3 2.9-21 5.7-30l.7-2.5 3-.3c1.5-.2 3.3-.2 4-.2h26.5l2-4.9c3.5-9 9.3-20 14.4-27.3l2-2.9-6.8-10.3c-9.8-15.2-9.8-15.1-10-16C68.4 90 83.6 75.2 94 67.3a111 111 0 0 1 17.2-11 135.2 135.2 0 0 1 15 13.2l7.2 6.7L138 74c7.5-3.7 15.3-6.7 25.9-9.8.5-.2.6-.9 3.1-17.3a134 134 0 0 1 2.4-13c1.7-2.4 29.7-4.8 46.1-4 6.7.3 7.8.2 8.3-.3l9-13.3C241 3.8 241.1 3.7 240 3.4c-3.7-.7-13.5-2.3-18.1-2.8-7.1-.8-37.9-.8-44.8 0m87 1.7C262.8 3.8 256.3 13 228 53a50689.1 50689.1 0 0 1-112.4 158l-2.9 4 43 .2 43 .2-14.9 38.8a31703.2 31703.2 0 0 0-54.5 142.5l43.2-60.1a195104 195104 0 0 1 82.1-114.5 4914 4914 0 0 0 39.2-55.3c.1-.5-4.5-.6-39.3-.7l-39.6-.3 21.3-69.9A292706.3 292706.3 0 0 0 265 2.5c.7-2 .6-2.1-.9-.2m-93.9 102.4a108 108 0 0 0-69.3 102.4l.1 7.7 36.8-55.4c36.4-55 37.6-56.6 37.3-56.6l-4.9 2"/>
        <path fill="#3c4454"
              d="M285.9 21.5a3666.2 3666.2 0 0 0-22.4 55.2 142 142 0 0 1 76.3 111l.3 3 17.7.2h30l12.3-.1-.2-4.5c-3-53.2-32.4-107.7-77-142.6-11.3-8.8-36.1-23.7-37-22.2m-40.6 104.2a535.3 535.3 0 0 0-6.7 19.8c0 .1 14 .3 31 .4l31 .2-1.6-2.1a114.2 114.2 0 0 0-46.6-38c-.2 0-3.4 8.9-7.1 19.7M260.6 241 210 315l3.4.1c18.8.8 43.8-8 62.5-22a110.2 110.2 0 0 0 36.3-124l-.8-2-50.7 74M373.8 210l-1.2.2-.5 6a109 109 0 0 1-2.7 18.2 148 148 0 0 1-4 14c-.1 0-7.8.2-17 .2h-16.6l-2.4 5.8a85.7 85.7 0 0 1-9.2 17.6l-4.9 7.8c-2.5 3.7-2.7 2.8 1.5 9.3 1.9 3 3.4 5.5 3.4 5.7l2.4 4c3.4 5.1 6.3 9.8 6.9 10.9 1.1 2-26.1 26.5-33.5 30-1 .4-2.8 1.5-4 2.3-3.8 2.6-4.7 3-5.7 2.3-1.2-.8-15.5-14.2-18.6-17.3-3-3.1-2.3-3-7.6-.4a103.2 103.2 0 0 1-24.4 8.8l-2 .6-.9 5.7c-.5 3.1-1 6.5-1.4 7.5-.3 1-1 5.3-1.6 9.5l-1.3 7.5c-.1-.1-.4 0-.7.4-1.3 1.8-36.3 4.6-42.5 3.5-1.2-.3-4.7-.5-7.6-.6l-5.3-.1-8.8 12.8-8.8 12.8 1 .5c4.6 2.4 26.2 4.5 46 4.5 17 0 19.3-.2 31.4-2.2l7.2-1.2a192 192 0 0 0 20.6-5.5l7.9-2.5a191.1 191.1 0 0 0 71.5-45.4c16.5-16.3 25-27.4 35-45.6l2.6-4.4a196 196 0 0 0 12-27.8 170 170 0 0 0 6-21.8 149 149 0 0 0 3.9-26.8l.2-6.3-12-.2a231.4 231.4 0 0 1-14.3-.3M.1 216c3 53.2 32.4 107.7 77 142.6 10.9 8.5 35.7 23.5 37 22.2a1297.8 1297.8 0 0 0 18-43.7 98.8 98.8 0 0 0 4.4-11.5 142 142 0 0 1-76.4-111l-.2-3.1h-60l.2 4.5m104.3 19.2c5 18.3 14.5 34.5 28.2 48.1 6 6 15.6 13.8 16.2 13.1.3-.3 26.4-63.4 26.4-63.9 0 0-16.1-.2-35.8-.2h-35.7l.7 2.9"/>
    </g>
</svg>
